{
	"asset":{
		"generator":"Khronos glTF Blender I/O v3.6.6",
		"version":"2.0"
	},
	"scene":0,
	"scenes":[
		{
			"name":"Character",
			"nodes":[
				0,
				1
			]
		}
	],
	"nodes":[
		{
			"mesh":0,
			"name":"Character"
		},
		{
			"name":"Camera Focus",
			"translation":[
				0,
				0.8137640953063965,
				0
			]
		}
	],
	"materials":[
		{
			"doubleSided":true,
			"name":"Material",
			"pbrMetallicRoughness":{
				"baseColorFactor":[
					0.800000011920929,
					0.800000011920929,
					0.800000011920929,
					1
				],
				"metallicFactor":0,
				"roughnessFactor":0.5
			}
		}
	],
	"meshes":[
		{
			"name":"Model",
			"primitives":[
				{
					"attributes":{
						"POSITION":0,
						"TEXCOORD_0":1,
						"NORMAL":2
					},
					"indices":3,
					"material":0
				}
			]
		}
	],
	"accessors":[
		{
			"bufferView":0,
			"componentType":5126,
			"count":478,
			"max":[
				0.28138768672943115,
				1.0137641429901123,
				0.1999998688697815
			],
			"min":[
				-0.21428869664669037,
				0,
				-0.6477536559104919
			],
			"type":"VEC3"
		},
		{
			"bufferView":1,
			"componentType":5126,
			"count":478,
			"type":"VEC2"
		},
		{
			"bufferView":2,
			"componentType":5126,
			"count":478,
			"type":"VEC3"
		},
		{
			"bufferView":3,
			"componentType":5123,
			"count":897,
			"type":"SCALAR"
		}
	],
	"bufferViews":[
		{
			"buffer":0,
			"byteLength":5736,
			"byteOffset":0,
			"target":34962
		},
		{
			"buffer":0,
			"byteLength":3824,
			"byteOffset":5736,
			"target":34962
		},
		{
			"buffer":0,
			"byteLength":5736,
			"byteOffset":9560,
			"target":34962
		},
		{
			"buffer":0,
			"byteLength":1794,
			"byteOffset":15296,
			"target":34963
		}
	],
	"buffers":[
		{
			"byteLength":17092,
			"uri":"data:application/octet-stream;base64,"
		}
	]
}
